<svg height="1024" node-id="1" sillyvg="true" template-height="1024" template-width="1630" version="1.1"
     viewBox="0 0 1630 1024" width="1630" xmlns="http://www.w3.org/2000/svg" xmlns:xlink="http://www.w3.org/1999/xlink">
    <defs node-id="19"></defs>
    <g node-id="21">
        <g node-id="22">
            <path d="M 978.02 302.03 L 1000.30 302.28 L 1022.29 303.09 L 1043.97 304.43 L 1065.37 306.31 L 1082.55 308.25 L 1099.45 310.58 L 1116.09 313.29 L 1132.46 316.37 L 1148.59 319.83 L 1164.73 323.75 L 1180.54 328.09 L 1196.01 332.84 L 1211.17 337.99 L 1226.02 343.56 L 1240.77 349.65 L 1255.13 356.19 L 1269.13 363.17 L 1282.76 370.61 L 1296.04 378.50 L 1306.90 385.48 L 1317.47 392.81 L 1327.76 400.48 L 1337.77 408.50 L 1347.52 416.89 L 1357.00 425.63 L 1366.12 434.67 L 1374.93 444.10 L 1383.45 453.93 L 1391.68 464.18 L 1399.62 474.85 L 1407.27 485.95 L 1414.39 497.16 L 1421.19 508.83 L 1427.68 520.97 L 1433.85 533.61 L 1439.69 546.76 L 1445.20 560.44 L 1450.10 573.95 L 1454.65 588.00 L 1458.84 602.62 L 1462.67 617.82 L 1466.11 633.64 L 1469.16 650.09 L 1471.62 666.06 L 1473.68 682.66 L 1475.31 699.92 L 1476.51 717.86 L 1477.25 736.51 L 1477.51 755.89 L 1477.26 782.23 L 1476.52 805.46 L 1475.37 825.84 L 1474.09 841.38 L 1472.56 855.33 L 1470.82 867.78 L 1468.90 878.87 L 1466.45 890.34 L 1463.79 900.43 L 1460.98 909.26 L 1458.02 916.95 L 1455.15 923.26 L 1452.18 928.87 L 1449.10 933.84 L 1445.93 938.22 L 1442.67 942.06 L 1438.99 945.75 L 1435.16 948.98 L 1431.19 951.78 L 1427.06 954.17 L 1422.77 956.16 L 1417.19 958.15 L 1411.26 959.66 L 1404.96 960.70 L 1398.24 961.22 L 1391.61 961.30 L 1384.55 961.00 L 1377.03 960.32 L 1369.02 959.22 L 1358.53 957.37 L 1347.22 955.02 L 1335.03 952.12 L 1316.53 947.36 L 1296.19 941.89 L 1275.22 936.30 L 1252.44 930.51 L 1237.00 926.84 L 1220.77 923.32 L 1203.69 919.94 L 1186.58 916.96 L 1168.66 914.36 L 1149.89 912.15 L 1135.87 910.87 L 1121.38 909.93 L 1106.41 909.34 L 1090.95 909.12 L 1077.80 909.31 L 1062.86 909.87 L 1045.99 910.83 L 1020.14 912.72 L 990.82 915.22 L 927.26 921.15 L 893.25 924.32 L 857.15 927.50 L 820.43 930.45 L 782.29 933.12 L 756.69 934.64 L 730.77 935.90 L 704.51 936.90 L 678.25 937.55 L 651.96 937.82 L 625.65 937.69 L 599.34 937.10 L 573.30 935.99 L 547.51 934.36 L 528.16 932.75 L 509.11 930.78 L 490.37 928.46 L 471.93 925.79 L 453.46 922.67 L 435.44 919.14 L 417.87 915.19 L 400.73 910.84 L 383.62 905.93 L 367.10 900.54 L 351.14 894.69 L 335.73 888.38 L 324.30 883.11 L 313.27 877.50 L 302.65 871.55 L 292.41 865.26 L 282.55 858.63 L 272.87 851.57 L 263.54 844.27 L 254.56 836.72 L 245.91 828.92 L 237.60 820.86 L 227.53 810.38 L 217.96 799.66 L 208.87 788.70 L 200.26 777.50 L 191.99 765.97 L 184.18 754.37 L 176.82 742.70 L 169.90 730.95 L 161.15 714.97 L 153.16 699.20 L 145.91 683.63 L 139.11 667.83 L 133.04 652.61 L 127.65 637.94 L 122.62 623.12 L 118.25 609.26 L 114.51 596.31 L 109.54 577.26 L 105.86 561.14 L 102.91 546.10 L 101.08 534.85 L 99.87 524.99 L 99.55 519.84 L 99.62 506.66 L 100.16 493.53 L 101.16 480.44 L 102.64 467.39 L 104.54 454.38 L 106.82 441.50 L 109.48 428.76 L 112.52 416.13 L 117.12 399.43 L 122.24 383.13 L 127.87 367.22 L 134.04 351.50 L 140.54 336.37 L 147.37 321.80 L 154.66 307.45 L 162.10 293.87 L 169.68 281.04 L 177.68 268.44 L 185.62 256.80 L 193.49 246.08 L 201.76 235.63 L 209.75 226.32 L 217.46 218.08 L 223.60 212.03 L 229.44 206.74 L 234.99 202.14 L 240.26 198.18 L 249.21 192.27 L 258.47 186.91 L 268.04 182.09 L 277.95 177.80 L 288.22 174.05 L 298.60 170.87 L 309.28 168.12 L 320.29 165.83 L 331.64 163.99 L 343.35 162.61 L 357.88 161.53 L 372.85 161.02 L 388.30 161.12 L 404.23 161.84 L 419.99 163.08 L 436.11 164.80 L 452.59 167.01 L 469.46 169.73 L 491.75 173.91 L 514.46 178.74 L 537.62 184.25 L 560.66 190.20 L 583.88 196.58 L 607.29 203.38 L 642.26 214.05 L 677.06 225.11 L 745.53 247.42 L 779.07 258.23 L 811.27 268.28 L 832.67 274.67 L 853.20 280.47 L 872.87 285.68 L 892.69 290.48 L 911.36 294.43 L 928.92 297.60 L 942.35 299.56 L 954.98 300.93 L 966.85 301.74 L 978.02 302.03 Z"
                  fill="#eff0f9" fill-rule="evenodd" group-id="1,2" id="椭圆形备份-13" node-id="6" stroke="none"
                  target-height="800.27997" target-width="1377.96" target-x="99.55" target-y="161.02"></path>
        </g>
        <g node-id="23">
            <path d="M 771.68 98.63 L 775.44 98.91 L 779.02 99.71 L 782.46 101.03 L 785.67 102.83 L 788.58 105.06 L 791.20 107.77 L 791.20 107.77 L 822.06 144.75 L 824.56 147.41 L 827.26 149.73 L 830.17 151.73 L 833.31 153.41 L 836.61 154.74 L 840.00 155.70 L 843.51 156.28 L 847.16 156.49 L 847.16 156.49 L 1216.10 156.49 L 1224.39 650.66 L 391.23 650.66 L 387.74 650.42 L 384.45 649.75 L 381.33 648.66 L 378.38 647.18 L 375.70 645.36 L 373.25 643.21 L 371.10 640.77 L 369.29 638.08 L 367.80 635.13 L 366.72 632.01 L 366.05 628.73 L 365.81 625.23 L 365.81 625.23 L 374.88 98.63 Z"
                  fill="#3681fd" fill-rule="evenodd" group-id="1,3" id="矩形" node-id="8" stroke="#555555"
                  stroke-linecap="butt" stroke-width="7.2639265" target-height="552.02997" target-width="858.58"
                  target-x="365.81" target-y="98.63"></path>
            <path d="M 423.04 202.20 L 854.72 247.58 L 794.51 341.23 L 768.33 453.51 L 812.53 539.12 L 876.86 402.97 L 827.56 352.61 L 876.13 308.33 L 876.13 249.83 L 1181.00 281.88 L 1104.70 768.59 L 1103.23 775.84 L 1101.21 782.76 L 1098.62 789.36 L 1095.49 795.73 L 1091.89 801.71 L 1087.81 807.34 L 1083.29 812.61 L 1078.38 817.45 L 1073.08 821.88 L 1067.44 825.86 L 1061.49 829.36 L 1055.24 832.38 L 1048.75 834.86 L 1042.04 836.80 L 1035.09 838.20 L 1028.04 838.99 L 1020.83 839.17 L 1013.44 838.73 L 1013.44 838.73 L 471.18 781.72 L 463.86 780.62 L 456.85 778.94 L 450.12 776.70 L 443.61 773.89 L 437.45 770.60 L 431.62 766.82 L 426.13 762.56 L 421.05 757.91 L 416.35 752.84 L 412.09 747.41 L 408.30 741.65 L 404.97 735.55 L 402.15 729.20 L 399.87 722.60 L 398.13 715.73 L 396.98 708.73 L 396.43 701.54 L 396.50 694.14 L 396.50 694.14 L 423.04 202.20 Z"
                  fill="#ffffff" fill-rule="evenodd" group-id="1,3" id="形状结合" node-id="9" stroke="#555555"
                  stroke-linecap="butt" stroke-width="7.2639265" target-height="636.97" target-width="784.57"
                  target-x="396.43" target-y="202.2"></path>
            <g node-id="24">
                <path d="M 1335.42 231.22 L 1330.32 232.44 L 1316.65 236.08 L 1307.69 238.70 L 1296.88 242.11 L 1285.66 245.93 L 1273.45 250.48 L 1261.19 255.50 L 1248.83 261.15 L 1240.71 265.24 L 1232.92 269.55 L 1225.46 274.08 L 1218.24 278.98 L 1211.70 284.03 L 1205.80 289.24 L 1201.64 293.48 L 1198.03 297.78 L 1194.93 302.15 L 1192.32 306.59 L 1190.17 311.30 L 1188.65 316.09 L 1187.75 321.01 L 1187.46 326.09 L 1187.69 330.07 L 1188.40 334.19 L 1189.60 338.48 L 1191.34 342.97 L 1193.67 347.69 L 1196.03 351.33 L 1198.89 354.77 L 1202.30 358.04 L 1206.03 360.97 L 1210.07 363.61 L 1214.46 365.99 L 1219.02 368.01 L 1223.67 369.66 L 1228.43 370.94 L 1233.27 371.83 L 1237.96 372.28 L 1242.52 372.29 L 1247.04 371.83 L 1251.19 370.88 L 1255.02 369.46 L 1257.72 368.02 L 1260.13 366.28 L 1262.30 364.23 L 1264.22 361.83 L 1269.44 354.34 L 1271.70 350.72 L 1273.65 346.81 L 1274.70 344.09 L 1275.60 340.94 L 1276.34 337.28 L 1276.80 333.59 L 1277.05 329.12 L 1277.04 323.76 L 1276.53 315.33 L 1275.26 304.26 L 1274.44 300.72 L 1273.09 297.44 L 1271.20 294.38 L 1268.72 291.50 L 1265.90 289.00 L 1262.65 286.67 L 1258.91 284.54 L 1254.63 282.61 L 1248.79 280.57 L 1242.35 278.92 L 1235.26 277.69 L 1228.10 276.97 L 1220.65 276.70 L 1212.88 276.89 L 1205.14 277.56 L 1197.44 278.70 L 1189.76 280.32 L 1182.22 282.45 L 1175.03 285.04 L 1168.17 288.11 L 1163.19 290.79 L 1158.58 293.73 L 1154.31 296.93 L 1150.37 300.38 L 1146.75 304.18 L 1143.59 308.25 L 1140.89 312.60 L 1138.63 317.26 L 1133.43 330.49 L 1128.86 343.43 L 1124.92 356.09 L 1121.58 368.47 L 1118.81 380.60 L 1116.60 392.48 L 1114.94 404.14 L 1113.80 415.59"
                      fill="none" group-id="1,3,4" id="路径-5备份" node-id="10" stroke="#555555"
                      stroke-dasharray="34.11981 34.11981" stroke-linecap="butt" stroke-opacity="0.2"
                      stroke-width="7.018339" target-height="184.37" target-width="221.62" target-x="1113.8"
                      target-y="231.22"></path>
            </g>
            <g node-id="25">
                <path d="M 1245.03 199.48 L 1311.63 236.84 L 1366.75 199.48 L 1330.86 247.68 L 1396.02 273.65 L 1449.00 138.06 Z"
                      fill="#3681fd" fill-rule="evenodd" group-id="1,3,5" id="路径-4备份" node-id="11" stroke="none"
                      target-height="135.59" target-width="203.96997" target-x="1245.03" target-y="138.06"></path>
            </g>
            <path d="M 543.85 254.20 L 548.45 254.50 L 827.86 283.87 L 790.07 339.99 L 772.17 453.04 L 812.39 530.93 L 883.39 403.70 L 833.23 352.46 L 880.05 309.01 L 879.86 289.34 L 1047.47 306.96 L 1052.25 307.67 L 1056.82 308.72 L 1061.21 310.10 L 1065.42 311.83 L 1070.82 314.63 L 1075.81 317.92 L 1080.43 321.70 L 1084.63 325.93 L 1088.36 330.53 L 1091.62 335.52 L 1094.36 340.82 L 1096.54 346.39 L 1098.16 352.25 L 1098.97 356.73 L 1099.41 361.31 L 1099.49 366.01 L 1099.18 370.83 L 1098.52 375.38 L 1032.43 730.59 L 1030.91 737.26 L 1028.95 743.63 L 1026.55 749.73 L 1023.71 755.57 L 1020.43 761.20 L 1016.81 766.50 L 1012.83 771.49 L 1008.48 776.17 L 1003.80 780.53 L 998.86 784.51 L 993.64 788.11 L 988.13 791.36 L 982.40 794.19 L 976.49 796.59 L 970.38 798.56 L 964.04 800.09 L 957.63 801.15 L 951.11 801.71 L 944.44 801.78 L 937.62 801.33 L 553.12 760.91 L 546.35 759.93 L 539.85 758.48 L 533.58 756.57 L 527.53 754.20 L 521.66 751.38 L 516.09 748.19 L 510.80 744.61 L 505.79 740.65 L 501.08 736.33 L 496.72 731.72 L 492.71 726.80 L 489.04 721.57 L 485.76 716.08 L 482.91 710.38 L 480.46 704.44 L 478.43 698.25 L 476.87 691.95 L 475.79 685.49 L 475.20 678.85 L 475.10 672.01 L 484.28 310.81 L 484.61 305.99 L 485.29 301.35 L 486.33 296.87 L 487.71 292.53 L 490.08 286.92 L 492.96 281.69 L 496.36 276.79 L 500.25 272.26 L 504.54 268.18 L 509.26 264.53 L 514.32 261.38 L 519.70 258.77 L 525.41 256.69 L 529.82 255.53 L 534.35 254.73 L 539.02 254.28 L 543.85 254.20 Z"
                  fill="#f4f4f4" fill-rule="evenodd" group-id="1,3" id="形状结合" node-id="12" stroke="none"
                  target-height="547.58" target-width="624.39" target-x="475.1" target-y="254.2"></path>
            <path d="M 1249.01 309.08 L 1268.70 349.46 L 1235.56 863.05 L 941.10 884.75 L 743.47 884.75 L 411.03 862.99 L 316.19 392.24 L 371.67 344.47 L 1249.01 309.08 Z"
                  fill="#ffffff" fill-rule="evenodd" group-id="1,3" id="矩形" node-id="13" stroke="#555555"
                  stroke-linecap="butt" stroke-width="7.2639265" target-height="575.67004" target-width="952.50995"
                  target-x="316.19" target-y="309.08"></path>
            <path d="M 883.79 773.45 L 880.97 777.02 L 878.24 781.29 L 876.55 784.79 L 875.37 788.46 L 874.71 792.26 L 874.59 796.14 L 875.00 799.94 L 875.87 803.49 L 877.19 806.85 L 878.94 810.00 L 881.03 812.85 L 883.49 815.43 L 886.26 817.67 L 889.27 819.53 L 892.57 821.03 L 896.02 822.08 L 899.65 822.67 L 903.48 822.79 L 905.43 822.61 L 908.60 821.88 L 911.75 820.68 L 914.92 818.98 L 917.90 816.95 L 920.74 814.61 L 923.43 811.95 L 925.91 809.09 L 928.08 806.12 L 929.96 803.06 L 931.56 799.85 L 932.71 796.77 L 933.47 793.82 L 933.88 790.44 L 933.90 787.29 L 933.55 784.34 L 932.85 781.55 L 931.39 777.99 L 929.47 774.78 L 927.06 771.89 L 924.25 769.38 L 921.13 767.27 L 917.68 765.55 L 914.03 764.29 L 910.24 763.51 L 906.29 763.22 L 902.33 763.45 L 898.40 764.25 L 894.46 765.62 L 891.68 767.00 L 888.98 768.75 L 886.35 770.89 L 883.79 773.45 Z M 925.11 792.20 L 924.15 795.46 L 922.41 799.07 L 920.15 802.56 L 917.39 805.93 L 914.29 808.96 L 911.05 811.42 L 908.73 812.76 L 906.52 813.67 L 904.39 814.19 L 902.89 814.32 L 899.44 814.13 L 896.24 813.38 L 893.23 812.07 L 890.48 810.26 L 888.12 808.06 L 886.11 805.43 L 884.57 802.51 L 883.57 799.33 L 883.11 795.84 L 883.19 793.15 L 883.65 790.52 L 884.47 787.97 L 885.65 785.55 L 887.93 781.96 L 890.21 779.07 L 893.08 776.36 L 896.03 774.34 L 899.11 772.94 L 902.38 772.06 L 905.60 771.70 L 908.79 771.86 L 911.93 772.49 L 914.84 773.54 L 917.54 775.01 L 919.97 776.88 L 921.99 779.06 L 923.62 781.58 L 924.76 784.34 L 925.33 787.37 L 925.33 790.73 L 925.11 792.20 Z"
                  fill="#555555" fill-rule="nonzero" group-id="1,3,6" id="路径-3备份" node-id="14" stroke="none"
                  target-height="59.570007" target-width="59.309998" target-x="874.59" target-y="763.22"></path>
            <path d="M 1012.59 769.07 L 1008.98 771.85 L 1005.31 775.34 L 1002.82 778.32 L 1000.78 781.59 L 999.23 785.12 L 998.17 788.86 L 997.65 792.64 L 997.63 796.30 L 998.10 799.87 L 999.03 803.36 L 1000.38 806.63 L 1002.14 809.73 L 1004.28 812.57 L 1006.76 815.11 L 1009.59 817.36 L 1012.69 819.22 L 1016.07 820.66 L 1019.76 821.71 L 1021.69 822.01 L 1024.94 822.06 L 1028.29 821.66 L 1031.78 820.78 L 1035.16 819.52 L 1038.48 817.94 L 1041.74 816.02 L 1044.83 813.83 L 1047.65 811.48 L 1050.22 808.97 L 1052.55 806.23 L 1054.41 803.53 L 1055.86 800.85 L 1057.08 797.67 L 1057.86 794.62 L 1058.23 791.67 L 1058.23 788.80 L 1057.68 784.98 L 1056.59 781.41 L 1054.95 778.03 L 1052.83 774.90 L 1050.32 772.10 L 1047.38 769.60 L 1044.14 767.49 L 1040.66 765.82 L 1036.89 764.58 L 1033.00 763.85 L 1028.99 763.67 L 1024.84 764.05 L 1021.80 764.72 L 1018.76 765.76 L 1015.69 767.20 L 1012.59 769.07 Z M 1048.14 797.26 L 1046.43 800.19 L 1043.86 803.27 L 1040.82 806.11 L 1037.33 808.71 L 1033.59 810.90 L 1029.85 812.50 L 1027.27 813.24 L 1024.91 813.59 L 1022.72 813.58 L 1021.24 813.35 L 1017.93 812.33 L 1015.01 810.82 L 1012.40 808.82 L 1010.17 806.40 L 1008.41 803.70 L 1007.10 800.66 L 1006.31 797.46 L 1006.11 794.13 L 1006.51 790.63 L 1007.24 788.04 L 1008.32 785.59 L 1009.73 783.32 L 1011.46 781.25 L 1014.55 778.32 L 1017.46 776.08 L 1020.90 774.13 L 1024.25 772.89 L 1027.58 772.28 L 1030.97 772.21 L 1034.17 772.65 L 1037.23 773.57 L 1040.13 774.95 L 1042.69 776.67 L 1044.95 778.75 L 1046.86 781.15 L 1048.29 783.75 L 1049.27 786.59 L 1049.70 789.54 L 1049.53 792.62 L 1048.71 795.89 L 1048.14 797.26 Z"
                  fill="#555555" fill-rule="nonzero" group-id="1,3,7" id="路径-3备份-9" node-id="15" stroke="none"
                  target-height="58.390015" target-width="60.599976" target-x="997.63" target-y="763.67"></path>
            <path d="M 1149.26 758.19 L 1145.75 758.39 L 1142.16 758.97 L 1138.72 759.95 L 1135.42 761.34 L 1132.30 763.12 L 1129.44 765.25 L 1126.80 767.75 L 1124.22 770.92 L 1122.17 774.26 L 1120.62 777.78 L 1119.53 781.47 L 1118.94 785.20 L 1118.84 788.99 L 1119.21 792.76 L 1120.06 796.43 L 1121.40 800.03 L 1123.20 803.42 L 1125.48 806.58 L 1128.28 809.55 L 1129.86 810.88 L 1132.87 812.83 L 1136.22 814.43 L 1139.95 815.69 L 1143.81 816.56 L 1147.77 817.09 L 1151.84 817.29 L 1155.93 817.15 L 1159.83 816.71 L 1163.58 815.96 L 1167.23 814.88 L 1170.42 813.56 L 1173.20 812.00 L 1176.03 809.85 L 1178.38 807.57 L 1180.29 805.15 L 1181.80 802.58 L 1182.97 799.79 L 1183.79 796.95 L 1184.25 794.04 L 1184.37 791.02 L 1184.01 787.01 L 1183.11 783.03 L 1181.65 779.06 L 1179.70 775.30 L 1177.29 771.77 L 1174.39 768.45 L 1171.11 765.52 L 1167.44 763.01 L 1163.34 760.92 L 1160.13 759.72 L 1156.72 758.86 L 1153.11 758.35 L 1149.26 758.19 Z M 1168.20 804.43 L 1166.21 805.52 L 1163.86 806.46 L 1161.06 807.24 L 1156.73 807.97 L 1152.07 808.21 L 1147.39 807.94 L 1142.98 807.13 L 1140.15 806.25 L 1137.70 805.13 L 1135.58 803.79 L 1134.33 802.74 L 1131.87 799.99 L 1130.03 797.01 L 1128.76 793.76 L 1128.06 790.33 L 1127.95 786.90 L 1128.43 783.41 L 1129.50 780.05 L 1131.16 776.90 L 1133.47 773.91 L 1135.30 772.18 L 1137.29 770.70 L 1139.45 769.47 L 1141.73 768.51 L 1144.12 767.83 L 1146.61 767.43 L 1149.38 767.27 L 1152.73 767.44 L 1155.82 767.97 L 1158.69 768.83 L 1161.37 770.02 L 1164.71 772.08 L 1167.60 774.49 L 1170.07 777.27 L 1172.12 780.37 L 1173.64 783.56 L 1174.65 786.86 L 1175.13 790.27 L 1175.01 793.51 L 1174.30 796.64 L 1173.38 798.83 L 1172.07 800.85 L 1170.36 802.71 L 1168.20 804.43 Z"
                  fill="#555555" fill-rule="nonzero" group-id="1,3,8" id="路径-3备份-3" node-id="16" stroke="none"
                  target-height="59.099976" target-width="65.53003" target-x="1118.84" target-y="758.19"></path>
            <path d="M 375.51 358.20 L 335.73 394.86 L 1251.23 353.17 L 1236.04 321.55 Z" fill="#f4f4f4"
                  fill-rule="evenodd" group-id="1,3" id="路径-24" node-id="17" stroke="none" target-height="73.31"
                  target-width="915.5" target-x="335.73" target-y="321.55"></path>
        </g>
    </g>
    <text x="50%" y="50%" font-size="70" style='dominant-baseline:middle;text-anchor:middle;'>该文件格式暂不支持预览
    </text>
</svg>